<svg xmlns="http://www.w3.org/2000/svg" width="11.534" height="8.935" viewBox="0 0 11.534 8.935">
  <path id="Trazado_134" data-name="Trazado 134" d="M.721,5.105H9.27L6.653,7.888a.59.59,0,0,0,.094.9A.788.788,0,0,0,7.764,8.7l3.6-3.829a.747.747,0,0,0,.065-.1c0-.032.036-.051.05-.083a.548.548,0,0,0,0-.459c0-.032-.036-.051-.05-.083a.747.747,0,0,0-.065-.1L7.764.23A.762.762,0,0,0,7.209,0a.78.78,0,0,0-.461.147.62.62,0,0,0-.258.433.59.59,0,0,0,.164.467L9.27,3.829H.721A.683.683,0,0,0,0,4.467.683.683,0,0,0,.721,5.105Z" fill="#0033a0"/>
</svg>
