<svg xmlns="http://www.w3.org/2000/svg" width="16.534" height="13.935" viewBox="0 0 16.534 13.935">
  <path id="Trazado_134" data-name="Trazado 134" d="M1.033,7.962H13.289L9.538,12.3a.972.972,0,0,0,.134,1.4,1.062,1.062,0,0,0,1.457-.129L16.3,7.6a1.176,1.176,0,0,0,.093-.149c0-.05.052-.08.072-.129a.924.924,0,0,0,0-.717c0-.05-.052-.08-.072-.129A1.176,1.176,0,0,0,16.3,6.33L11.129.358A1.066,1.066,0,0,0,9.672.229.985.985,0,0,0,9.3.9a.971.971,0,0,0,.235.729l3.751,4.339H1.033a1,1,0,1,0,0,1.991Z" fill="#0033a0"/>
</svg>
