<svg xmlns="http://www.w3.org/2000/svg" width="16.635" height="17.026" viewBox="0 0 16.635 17.026">
  <g id="Grupo_11142" data-name="Grupo 11142" transform="translate(0 0)">
    <path id="Uni贸n_18" data-name="Uni贸n 18" d="M3.895,12.2q-.024-.024-.046-.05l-.392-.392L1.531,9.831.313,8.612A1.109,1.109,0,0,1,0,7.86,1.067,1.067,0,0,1,1.066,6.794a1.1,1.1,0,0,1,.753.312l.44.44L3.582,8.87v-7.8A1.105,1.105,0,0,1,3.895.313,1.075,1.075,0,0,1,4.648,0,1.067,1.067,0,0,1,5.713,1.066v.018c0,.419,0,.838,0,1.257V8.873l.549-.548L7.48,7.107h0a1.109,1.109,0,0,1,.755-.312A1.067,1.067,0,0,1,9.3,7.86a1.1,1.1,0,0,1-.313.753L5.4,12.2l-.022.021a1.088,1.088,0,0,1-.734.293H4.619A1.1,1.1,0,0,1,3.895,12.2Z" transform="translate(4.125 17.026) rotate(-90)" fill="#1a374d"/>
    <path id="Uni贸n_17" data-name="Uni贸n 17" d="M3.9,12.2a1.1,1.1,0,0,1-.312-.753v-.018c0-.419,0-.838,0-1.257V3.639l-.547.547L1.818,5.4a1.109,1.109,0,0,1-.753.312A1.067,1.067,0,0,1,0,4.651,1.1,1.1,0,0,1,.313,3.9l.44-.44L2.678,1.533l1.2-1.2L3.9.313A1.075,1.075,0,0,1,4.648,0a1.024,1.024,0,0,1,.529.144A1.022,1.022,0,0,1,5.4.315l.44.44L7.768,2.68,8.986,3.9h0a1.094,1.094,0,0,1,.309.753A1.067,1.067,0,0,1,8.23,5.716,1.1,1.1,0,0,1,7.477,5.4l-.44-.44L5.714,3.64v7.8A1.105,1.105,0,0,1,5.4,12.2a1.075,1.075,0,0,1-.753.313H4.62A1.1,1.1,0,0,1,3.9,12.2Z" transform="translate(0 9.296) rotate(-90)" fill="#1a374d"/>
  </g>
</svg>
