<svg xmlns="http://www.w3.org/2000/svg" width="47.15" height="42.5" viewBox="0 0 47.15 42.5">
  <g id="Grupo_40" data-name="Grupo 40" transform="translate(-162.642 -972)">
    <path id="Icon_awesome-car-alt" data-name="Icon awesome-car-alt" d="M30.843,14.929l-.79-1.976-1.4-3.5A7.837,7.837,0,0,0,21.34,4.5H12.41A7.837,7.837,0,0,0,5.1,9.45l-1.4,3.5-.79,1.976A4.49,4.49,0,0,0,0,19.125V22.5a4.463,4.463,0,0,0,1.125,2.948v3.8a2.25,2.25,0,0,0,2.25,2.25h2.25a2.25,2.25,0,0,0,2.25-2.25V27h18v2.25a2.25,2.25,0,0,0,2.25,2.25h2.25a2.25,2.25,0,0,0,2.25-2.25v-3.8A4.461,4.461,0,0,0,33.75,22.5V19.125A4.49,4.49,0,0,0,30.843,14.929ZM9.276,11.121A3.375,3.375,0,0,1,12.41,9h8.93a3.375,3.375,0,0,1,3.134,2.121l1.4,3.5h-18l1.4-3.5ZM5.625,22.486a2.122,2.122,0,0,1-2.25-2.243A2.122,2.122,0,0,1,5.625,18C6.975,18,9,20.019,9,21.364S6.975,22.486,5.625,22.486Zm22.5,0c-1.35,0-3.375.224-3.375-1.121S26.775,18,28.125,18a2.122,2.122,0,0,1,2.25,2.243,2.122,2.122,0,0,1-2.25,2.243Z" transform="translate(171.575 983)" fill="#fff"/>
    <path id="Unión_14" data-name="Unión 14" d="M4.467,4.467H8.933L5.941,5.941,4.467,8.933ZM2.993,5.941,0,4.467H4.467V8.933ZM4.467,4.467V0L5.941,2.993,8.933,4.467ZM0,4.467,2.993,2.993,4.467,0V4.467Z" transform="translate(200.858 983.033)" fill="#fff"/>
    <path id="Unión_16" data-name="Unión 16" d="M4.467,4.467H8.933L5.941,5.941,4.467,8.933ZM2.993,5.941,0,4.467H4.467V8.933ZM4.467,4.467V0L5.941,2.993,8.933,4.467ZM0,4.467,2.993,2.993,4.467,0V4.467Z" transform="translate(162.642 981.033)" fill="#fff"/>
    <path id="Unión_15" data-name="Unión 15" d="M3.467,3.467H6.933L4.611,4.611,3.467,6.933ZM2.323,4.611,0,3.467H3.467V6.933ZM3.467,3.467V0L4.611,2.323,6.933,3.467ZM0,3.467,2.323,2.323,3.467,0V3.467Z" transform="translate(186.858 972)" fill="#fff"/>
  </g>
</svg>
