<svg id="generate-pdf" xmlns="http://www.w3.org/2000/svg" width="13.971" height="16.3" viewBox="0 0 13.971 16.3">
  <path id="Trazado_246" data-name="Trazado 246" d="M17.229,27v2.329H7.914V27H6.75v2.329a1.164,1.164,0,0,0,1.164,1.164h9.314a1.164,1.164,0,0,0,1.164-1.164V27Z" transform="translate(-5.586 -14.193)" fill="#1a374d"/>
  <path id="Trazado_247" data-name="Trazado 247" d="M18.2,19.825,17.373,19l-1.505,1.506V15.75H14.7v4.758L13.2,19l-.823.823,2.911,2.911Z" transform="translate(-8.3 -8.764)" fill="#1a374d"/>
  <path id="Trazado_248" data-name="Trazado 248" d="M28.243,3.414V2.25H24.75V8.071h1.164V5.743h1.746V4.579H25.914V3.414Z" transform="translate(-14.271 -2.25)" fill="#1a374d"/>
  <path id="Trazado_249" data-name="Trazado 249" d="M16.954,8.071H14.625V2.25h2.329A1.748,1.748,0,0,1,18.7,4V6.325A1.748,1.748,0,0,1,16.954,8.071ZM15.789,6.907h1.164a.583.583,0,0,0,.582-.582V4a.583.583,0,0,0-.582-.582H15.789Z" transform="translate(-9.386 -2.25)" fill="#1a374d"/>
  <path id="Trazado_250" data-name="Trazado 250" d="M7.411,2.25H4.5V8.071H5.664V6.325H7.411A1.166,1.166,0,0,0,8.575,5.161V3.414A1.165,1.165,0,0,0,7.411,2.25ZM5.664,5.161V3.414H7.411V5.161Z" transform="translate(-4.5 -2.25)" fill="#1a374d"/>
</svg>
