<svg id="Componente_17_45" data-name="Componente 17 – 45" xmlns="http://www.w3.org/2000/svg" width="33" height="33" viewBox="0 0 33 33">
  <rect id="Rectangle_1" data-name="Rectangle 1" width="33" height="33" fill="#fff" opacity="0"/>
  <path id="Icon_awesome-instagram" data-name="Icon awesome-instagram" d="M8.074,6.173a4.141,4.141,0,1,0,4.141,4.141A4.135,4.135,0,0,0,8.074,6.173Zm0,6.834a2.692,2.692,0,1,1,2.692-2.692A2.7,2.7,0,0,1,8.074,13.006Zm5.277-7a.966.966,0,1,1-.966-.966A.964.964,0,0,1,13.351,6Zm2.743.98a4.78,4.78,0,0,0-1.3-3.384,4.812,4.812,0,0,0-3.384-1.3c-1.334-.076-5.331-.076-6.664,0A4.8,4.8,0,0,0,1.356,3.6,4.8,4.8,0,0,0,.051,6.98c-.076,1.334-.076,5.331,0,6.664a4.78,4.78,0,0,0,1.3,3.384,4.818,4.818,0,0,0,3.384,1.3c1.334.076,5.331.076,6.664,0a4.78,4.78,0,0,0,3.384-1.3,4.812,4.812,0,0,0,1.3-3.384c.076-1.334.076-5.327,0-6.661Zm-1.723,8.091a2.726,2.726,0,0,1-1.535,1.535c-1.063.422-3.586.324-4.761.324s-3.7.094-4.761-.324a2.726,2.726,0,0,1-1.535-1.535c-.422-1.063-.324-3.586-.324-4.761s-.094-3.7.324-4.761A2.726,2.726,0,0,1,3.313,4.017C4.377,3.6,6.9,3.693,8.074,3.693s3.7-.094,4.761.324a2.726,2.726,0,0,1,1.535,1.535c.422,1.063.324,3.586.324,4.761S14.793,14.015,14.371,15.075Z" transform="translate(8.549 6.144)" fill="#fff"/>
</svg>
