<svg xmlns="http://www.w3.org/2000/svg" xmlns:xlink="http://www.w3.org/1999/xlink" width="1920" height="1000" viewBox="0 0 1920 1000">
  <defs>
    <clipPath id="clip-path">
      <rect id="Rectángulo_3293" data-name="Rectángulo 3293" width="1920" height="1000" fill="#f1f1f1"/>
    </clipPath>
  </defs>
  <g id="Enmascarar_grupo_4" data-name="Enmascarar grupo 4" opacity="0.3" clip-path="url(#clip-path)">
    <g id="Grupo_11143" data-name="Grupo 11143" transform="translate(-118 55)">
      <g id="Grupo_11142" data-name="Grupo 11142" transform="translate(77 22)">
        <g id="Grupo_22" data-name="Grupo 22" transform="translate(232 -493.053)" style="mix-blend-mode: multiply;isolation: isolate">
          <path id="Trazado_11" data-name="Trazado 11" d="M758.361,355.219l-99.081-86.1S569.754,193.143,556.6,181.455c-13.136-11.7-31.01-4.787-31.01-4.787s-41,16.451-52.316,20.137-15.35.452-15.35.452c-10.656-9.615-30.717-37.3-46.646-17.518-23.2,36.641-58.9,94.327-58.9,94.327l-24.713-.645,62.317-105.745s18.753-39.392,50.865-16.722l31.624,27.683s-2.573,5.333,54.862-19.476c0,0,15.831-8.773,33.026,5.518,17.233,14.332,95.172,78.9,95.172,78.9,19.364-18.335,30.18-39.2,27.987-58.351-7.316-64.468-148.7-101.487-315.772-82.717-141.8,15.929-256.485,66.944-283.458,121.432,0,0-19.325,4.9-36.607,10.145C59.252,160.443,184.865,112.5,352.306,93.676,538.172,72.767,710.33,113.2,718.368,183.939c2.978,26.222-14.949,52.932-48.17,77.228L762.44,350.9Z" transform="translate(-46.666 -88.166)" fill="#f1f1f1" fill-rule="evenodd"/>
          <path id="Trazado_12" data-name="Trazado 12" d="M341.2,133.334c1.841-9.837-3.159-15.892-24.266-9.229C263,141.118,176.677,170.85,176.677,170.85l141.452,2.127ZM79,204.42c.031,1.137.132,2.274.258,3.408,7.34,64.456,148.722,101.491,315.775,82.713,97.379-10.945,182.044-38.505,234.241-72.3l17.934,13.634c-56.818,36.247-141.884,60.428-250.087,72.589-185.862,20.905-335.8-21.385-348.362-90.4A74.177,74.177,0,0,1,47.42,198.2s15.04-4.927,281.3-89.926c58.847-18.787,42.4,16.676,42.4,16.676l-59.708,103.63-24.786-.37,25.717-45.164-172.566.443Z" transform="translate(-47.391 -42.779)" fill="#f1f1f1" fill-rule="evenodd"/>
        </g>
      </g>
    </g>
  </g>
</svg>
