<svg xmlns="http://www.w3.org/2000/svg" width="64" height="64" viewBox="0 0 64 64">
  <g id="Grupo_11134" data-name="Grupo 11134" transform="translate(-554 -1930)">
    <rect id="Rectángulo_3487" data-name="Rectángulo 3487" width="64" height="64" transform="translate(554 1930)" fill="#0033a0"/>
    <path id="pin" d="M14.908.25A14.537,14.537,0,0,1,25.514,4.6a14.3,14.3,0,0,1,4.4,10.556,20.4,20.4,0,0,1-1.551,7.153,41.529,41.529,0,0,1-3.752,7.5q-2.2,3.452-4.4,6.5t-3.7,4.853l-1.6,1.7q-.6-.6-1.6-1.8T9.756,36.421q-2.551-3.452-4.553-6.7a45.724,45.724,0,0,1-3.6-7.355,20.221,20.221,0,0,1-1.6-7.2A14.374,14.374,0,0,1,4.352,4.6,14.374,14.374,0,0,1,14.908.25Zm0,20.21a5.28,5.28,0,0,0,3.8-1.551,5.2,5.2,0,0,0,0-7.5,5.27,5.27,0,0,0-3.8-1.55,5.3,5.3,0,0,0-5.3,5.3,5.294,5.294,0,0,0,5.3,5.3Z" transform="translate(571.042 1940.438)" fill="#fff"/>
  </g>
</svg>
