<svg id="Componente_18_41" data-name="Componente 18 – 41" xmlns="http://www.w3.org/2000/svg" width="33" height="33" viewBox="0 0 33 33">
  <rect id="Rectangle_1" data-name="Rectangle 1" width="33" height="33" fill="#fff"/>
  <path id="Icon_awesome-youtube" data-name="Icon awesome-youtube" d="M18.319,6.44a2.216,2.216,0,0,0-1.559-1.569A52.372,52.372,0,0,0,9.869,4.5a52.372,52.372,0,0,0-6.891.371A2.216,2.216,0,0,0,1.419,6.44a23.248,23.248,0,0,0-.369,4.273,23.248,23.248,0,0,0,.369,4.273A2.183,2.183,0,0,0,2.978,16.53a52.372,52.372,0,0,0,6.891.371,52.372,52.372,0,0,0,6.891-.371,2.183,2.183,0,0,0,1.559-1.544,23.248,23.248,0,0,0,.369-4.273,23.248,23.248,0,0,0-.369-4.273Zm-10.254,6.9V8.091l4.61,2.622-4.61,2.622Z" transform="translate(7.132 5.3)" fill="#0033a0"/>
</svg>
